<svg width="48" height="48" viewBox="0 0 48 48" fill="none" xmlns="http://www.w3.org/2000/svg">
<path d="M43 5H6V9H43V5Z" fill="#F4CA19"/>
<path d="M43 11H38V25H43V11Z" fill="#F9F9F9"/>
<path d="M11 11H6V25H11V11Z" fill="#F9F9F9"/>
<path d="M37 23V11H20.1538L19 18.0391H21.1923L23.9451 13.7989L37 23Z" fill="#F9F9F9"/>
<path d="M34.0054 26.5733L36 25.0809L23.9837 16.0214L21.5804 19.9893H17.3787L18.5886 11H12V24.7473L17.3951 28.8382L24.1962 34L26.0926 32.5603L21.0245 28.487L22.1853 27.6092L27.4005 31.5771L29.4768 30.0145L24.2943 26.0114L25.5204 25.0985L30.6376 29.1191L32.6975 27.574L27.4332 23.6237L28.7575 22.6405L34.0054 26.5733Z" fill="#F9F9F9"/>
<path d="M24.5083 36.8632L11.1006 27H6V29.359L24.5083 43L43 29.359V27H37.8994L24.5083 36.8632Z" fill="#F4CA19"/>
</svg>
