<svg width="203" height="211" viewBox="0 0 203 211" fill="none" xmlns="http://www.w3.org/2000/svg">
<path d="M197.919 10V5H192.919H10H5V10V31.9947V36.9947H10H192.919H197.919V31.9947V10Z" fill="#E4B900" stroke="#FAFAFA" stroke-width="10"/>
<path d="M160.302 105.911L168.185 111.475V101.826V41.947V36.947H163.185H79.2413H74.9932L74.307 41.1393L68.5574 76.2639L67.6067 82.0716H73.4917H84.4159H87.1332L88.6114 79.7915L99.499 62.9973L160.302 105.911Z" fill="#464654" stroke="#FAFAFA" stroke-width="10"/>
<path d="M151.455 120.847L152.36 120.205L162.381 113.096L168.108 109.034L162.395 104.951L102.025 61.7975L97.7394 58.7343L94.9035 63.1734L84.304 79.7656H71.6936L76.9623 42.6497L77.7718 36.947H72.0119H38.9106H33.9106V41.947V107.429V109.993L35.9921 111.489L63.0955 130.974L63.0973 130.975L97.2645 155.561L100.185 157.663L103.106 155.561L112.634 148.703L116.249 146.101L116.268 146.115L119.188 144.032L129.619 136.588L135.25 132.571L135.177 132.518L135.445 132.328L145.794 124.969L151.523 120.895L151.455 120.847Z" fill="#464654" stroke="#FAFAFA" stroke-width="10"/>
<path d="M38.6555 41.947V36.947H33.6555H10H5V41.947V110.105V115.105H10H33.6555H38.6555V110.105V41.947Z" fill="#464654" stroke="#FAFAFA" stroke-width="10"/>
<path d="M198 41.947V36.947H193H169.345H164.345V41.947V110.105V115.105H169.345H193H198V110.105V41.947Z" fill="#464654" stroke="#FAFAFA" stroke-width="10"/>
<path d="M38.1588 115.68L36.8433 114.722H35.2161H10H5V119.722V131.263V133.805L7.05364 135.303L98.5544 202.04L101.502 204.19L104.449 202.038L195.867 135.302L197.919 133.804V131.263V119.722V114.722H192.919H167.703H166.074L164.758 115.682L101.499 161.791L38.1588 115.68Z" fill="#E4B900" stroke="#FAFAFA" stroke-width="10"/>
</svg>
