<svg width="138" height="48" viewBox="0 0 138 48" fill="none" xmlns="http://www.w3.org/2000/svg">
<path d="M49.9194 24.8363H51.2473C52.3276 24.8363 53.1378 24.6291 53.633 24.203C54.1281 23.7655 54.3869 23.0862 54.3869 22.1766V19.0793C54.3869 18.1466 54.1394 17.4558 53.633 17.0182C53.1378 16.6037 52.3276 16.3965 51.236 16.3965H39.6002V29.7874H42.9537V18.9641H49.9194C50.4033 18.9641 50.7522 19.0332 50.9435 19.1829C51.101 19.298 51.1798 19.5283 51.1798 19.8622V21.3706C51.1798 21.7045 51.101 21.9348 50.9435 22.0499C50.7409 22.1996 50.4033 22.2687 49.9194 22.2687H44.4166V23.6504L50.9997 29.7298L51.0447 29.7644H55.9849L49.9194 24.8363Z" fill="#E4B900"/>
<path d="M70.1865 27.0355H61.589V16.3965H58.2018V26.5404C58.2018 27.807 58.4381 28.6475 58.9107 29.0965C59.3946 29.5571 60.2949 29.7874 61.6453 29.7874H70.119C71.4918 29.7874 72.3921 29.5571 72.876 29.0965C73.3711 28.636 73.63 27.7724 73.63 26.5404V16.3965H70.1865V27.0355Z" fill="#E4B900"/>
<path d="M90.4985 19.0793L92.0852 16.3965H80.4832C79.1328 16.3965 78.2438 16.6268 77.7486 17.0873C77.2535 17.5594 77.0059 18.3999 77.0059 19.6435V26.5404C77.0059 27.7955 77.2535 28.636 77.7486 29.0965C78.2325 29.5571 79.1328 29.7874 80.4832 29.7874H90.4985L92.074 26.9779H80.4269V19.0793H90.4985Z" fill="#F9F9F9"/>
<path d="M104.824 16.4656L104.779 16.3965H101.617L93.852 29.7874H97.318L103.035 19.252L105.78 24.2261H101.797L100.368 26.9089H107.221L108.819 29.7874H112.679L104.824 16.4656Z" fill="#F9F9F9"/>
<path d="M127.522 19.0447L128.928 16.3965H114.963V29.7759H118.407V24.8594H123.606L125.012 22.142H118.407V19.0447H127.522Z" fill="#F9F9F9"/>
<path d="M35.1326 13.9673H10.0717V16.9955H35.1326V13.9673Z" fill="#E4B900"/>
<path d="M35.1439 18.3657H31.903V27.7497H35.1439V18.3657Z" fill="#F9F9F9"/>
<path d="M13.3126 18.3657H10.0717V27.7497H13.3126V18.3657Z" fill="#F9F9F9"/>
<path d="M31.059 26.6098V18.3657H19.5582L18.7704 23.2016H20.2671L22.1464 20.2886L31.059 26.6098Z" fill="#F9F9F9"/>
<path d="M29.1796 28.5787L30.5525 27.6L22.2814 21.6588L20.6272 24.2609H17.7351L18.5678 18.3657H14.0328V27.3813L17.7464 30.064L22.4277 33.4492L23.7331 32.505L20.2446 29.8338L21.0436 29.2581L24.6333 31.8602L26.0625 30.8355L22.4952 28.2103L23.3392 27.6115L26.8615 30.2483L28.2794 29.235L24.6558 26.6444L25.5674 25.9996L29.1796 28.5787Z" fill="#F9F9F9"/>
<path d="M22.6078 35.7174L13.5264 29.0737H10.0717V30.6627L22.6078 39.8509L35.1326 30.6627V29.0737H31.6779L22.6078 35.7174Z" fill="#E4B900"/>
</svg>
