<svg width="144" height="144" viewBox="0 0 144 144" fill="none" xmlns="http://www.w3.org/2000/svg">
<path d="M141.589 131.412L12.589 2.41167C11.2395 1.06216 9.40917 0.304016 7.50068 0.304016C5.59218 0.304016 3.76185 1.06216 2.41234 2.41167C1.06283 3.76118 0.304688 5.59151 0.304688 7.50001C0.304687 9.4085 1.06283 11.2388 2.41234 12.5883L14.6673 24.7717V122.167C14.6673 127.869 16.9325 133.337 20.9645 137.369C24.9966 141.401 30.4652 143.667 36.1673 143.667H107.834C111.16 143.656 114.437 142.873 117.409 141.381C120.382 139.889 122.967 137.727 124.962 135.067L131.412 141.588C132.079 142.26 132.871 142.793 133.745 143.157C134.618 143.521 135.555 143.708 136.501 143.708C137.447 143.708 138.383 143.521 139.257 143.157C140.13 142.793 140.923 142.26 141.589 141.588C142.261 140.922 142.794 140.129 143.158 139.256C143.522 138.383 143.709 137.446 143.709 136.5C143.709 135.554 143.522 134.617 143.158 133.744C142.794 132.871 142.261 132.078 141.589 131.412V131.412ZM107.834 129.333H36.1673C34.2666 129.333 32.4438 128.578 31.0997 127.234C29.7557 125.89 29.0007 124.067 29.0007 122.167V39.105L114.499 124.603C114.002 125.977 113.098 127.166 111.907 128.012C110.716 128.857 109.295 129.318 107.834 129.333ZM48.064 14.6667H72.0007V36.1667C72.0007 41.8688 74.2658 47.3374 78.2979 51.3695C82.3299 55.4015 87.7985 57.6667 93.5007 57.6667H115.001V81.6033C115.001 83.5041 115.756 85.3269 117.1 86.6709C118.444 88.0149 120.267 88.77 122.167 88.77C124.068 88.77 125.891 88.0149 127.235 86.6709C128.579 85.3269 129.334 83.5041 129.334 81.6033V50.5C129.334 50.5 129.334 50.5 129.334 50.07C129.259 49.4116 129.115 48.763 128.904 48.135V47.49C128.559 46.7531 128.1 46.0758 127.542 45.4833V45.4833L84.5423 2.48334C83.9499 1.92589 83.2726 1.46625 82.5357 1.12167H81.8907L79.5973 0.333339H48.064C46.1633 0.333339 44.3404 1.0884 42.9964 2.43241C41.6524 3.77642 40.8973 5.59929 40.8973 7.50001C40.8973 9.40072 41.6524 11.2236 42.9964 12.5676C44.3404 13.9116 46.1633 14.6667 48.064 14.6667V14.6667ZM86.334 24.7717L104.896 43.3333H93.5007C91.6 43.3333 89.7771 42.5783 88.4331 41.2343C87.0891 39.8903 86.334 38.0674 86.334 36.1667V24.7717Z" fill="#F5F5F5"/>
</svg>
