<svg width="14" height="13" viewBox="0 0 14 13" fill="none" xmlns="http://www.w3.org/2000/svg">
<path d="M13.214 1.36665L9.21399 0.033319H9.16732C9.13629 0.0302 9.10502 0.0302 9.07399 0.033319H8.92065H8.83399H8.78732L5.00065 1.33332L1.21399 0.033319C1.11373 0.000259988 1.00706 -0.00851749 0.902743 0.00770883C0.798431 0.0239352 0.699464 0.0647014 0.613987 0.126652C0.527826 0.187997 0.457497 0.268961 0.40881 0.362857C0.360123 0.456753 0.334476 0.560886 0.333987 0.666652V9.99999C0.333626 10.1397 0.377199 10.2761 0.458548 10.3897C0.539897 10.5034 0.654906 10.5886 0.78732 10.6333L4.78732 11.9667C4.92162 12.0104 5.06635 12.0104 5.20065 11.9667V11.9667L9.00065 10.7L12.7873 12C12.8581 12.0096 12.9299 12.0096 13.0007 12C13.14 12.0019 13.2761 11.9574 13.3873 11.8733C13.4735 11.812 13.5438 11.731 13.5925 11.6371C13.6412 11.5432 13.6668 11.4391 13.6673 11.3333V1.99999C13.6677 1.86022 13.6241 1.72388 13.5428 1.61023C13.4614 1.49658 13.3464 1.41138 13.214 1.36665V1.36665ZM4.33399 10.4067L1.66732 9.51999V1.59332L4.33399 2.47999V10.4067ZM8.33399 9.51999L5.66732 10.4067V2.47999L8.33399 1.59332V9.51999ZM12.334 10.4067L9.66732 9.51999V1.59332L12.334 2.47999V10.4067Z" fill="black"/>
</svg>
