<svg width="10" height="16" viewBox="0 0 10 16" fill="none" xmlns="http://www.w3.org/2000/svg">
<path d="M3.01748 14.9544C3.15718 14.8973 3.28602 14.817 3.3986 14.7171L2.24596 15.7989L0.832268 14.5L2.55894 12.7867C2.40874 12.9378 1.55665 14.6644 1.55894 14.6667C1.68352 14.7903 1.83128 14.888 1.99373 14.9544C2.15618 15.0207 2.33013 15.0544 2.5056 15.0534C2.68108 15.0544 2.85503 15.0207 3.01748 14.9544Z" fill="black"/>
<path d="M1.64325 1.57307C1.8618 2.01487 2.43798 3.15835 2.55894 3.28003L1.27892 2.00002L1.64325 1.57307Z" fill="black"/>
<path d="M2.5056 1.00563C2.35465 1.00563 2.20498 1.03126 2.06293 1.08126L2.55894 0.5L3.45227 1.40003C3.32832 1.27506 3.18085 1.17587 3.01837 1.10817C2.85589 1.04048 2.68162 1.00563 2.5056 1.00563Z" fill="black"/>
<path d="M7.27894 8.00003C7.27894 8.00003 2.80727 3.52985 2.55894 3.28003C2.43798 3.15835 1.8618 2.01487 1.64325 1.57307L2.06293 1.08126C2.20498 1.03126 2.35465 1.00563 2.5056 1.00563C2.68162 1.00563 2.85589 1.04048 3.01837 1.10817C3.18085 1.17587 3.32832 1.27506 3.45227 1.40003L9.1056 7.05336C9.23057 7.17731 9.32977 7.32478 9.39746 7.48726C9.46515 7.64974 9.5 7.82401 9.5 8.00003C9.5 8.17604 9.46515 8.35032 9.39746 8.5128C9.32977 8.67528 9.23057 8.82274 9.1056 8.9467L3.45227 14.6667L3.3986 14.7171C3.28602 14.817 3.15718 14.8973 3.01748 14.9544C2.85503 15.0207 2.68108 15.0544 2.5056 15.0534C2.33013 15.0544 2.15618 15.0207 1.99373 14.9544C1.83128 14.888 1.68352 14.7903 1.55894 14.6667C1.55665 14.6644 2.40874 12.9378 2.55894 12.7867C2.80727 12.5369 7.27894 8.00003 7.27894 8.00003Z" fill="black"/>
</svg>
