<svg width="12" height="14" viewBox="0 0 12 14" fill="none" xmlns="http://www.w3.org/2000/svg">
<path d="M8.19317 9.85998L6.6665 11.3933V3.66665C6.6665 3.48984 6.59627 3.32027 6.47124 3.19524C6.34622 3.07022 6.17665 2.99998 5.99984 2.99998C5.82303 2.99998 5.65346 3.07022 5.52843 3.19524C5.40341 3.32027 5.33317 3.48984 5.33317 3.66665V11.3933L3.8065 9.85998C3.68097 9.73444 3.5107 9.66392 3.33317 9.66392C3.15564 9.66392 2.98537 9.73444 2.85984 9.85998C2.7343 9.98552 2.66378 10.1558 2.66378 10.3333C2.66378 10.5108 2.7343 10.6811 2.85984 10.8066L5.5265 13.4733C5.58991 13.534 5.66467 13.5816 5.7465 13.6133C5.8263 13.6486 5.91259 13.6668 5.99984 13.6668C6.08708 13.6668 6.17337 13.6486 6.25317 13.6133C6.335 13.5816 6.40977 13.534 6.47317 13.4733L9.13984 10.8066C9.26537 10.6811 9.3359 10.5108 9.3359 10.3333C9.3359 10.1558 9.26537 9.98552 9.13984 9.85998C9.07768 9.79782 9.00388 9.74851 8.92267 9.71487C8.84145 9.68123 8.75441 9.66392 8.6665 9.66392C8.48897 9.66392 8.31871 9.73444 8.19317 9.85998V9.85998ZM10.6665 0.333313H1.33317C1.15636 0.333313 0.98679 0.403551 0.861766 0.528575C0.736742 0.653599 0.666504 0.823169 0.666504 0.99998C0.666504 1.17679 0.736742 1.34636 0.861766 1.47138C0.98679 1.59641 1.15636 1.66665 1.33317 1.66665H10.6665C10.8433 1.66665 11.0129 1.59641 11.1379 1.47138C11.2629 1.34636 11.3332 1.17679 11.3332 0.99998C11.3332 0.823169 11.2629 0.653599 11.1379 0.528575C11.0129 0.403551 10.8433 0.333313 10.6665 0.333313V0.333313Z" fill="#E4B900"/>
</svg>
