<svg width="28" height="28" viewBox="0 0 28 28" fill="none" xmlns="http://www.w3.org/2000/svg">
<path d="M11.3333 21.4L8.97332 23.6933C8.35448 24.3122 7.51515 24.6598 6.63999 24.6598C5.76482 24.6598 4.92549 24.3122 4.30665 23.6933C3.68781 23.0745 3.34015 22.2352 3.34015 21.36C3.34015 20.4848 3.68781 19.6455 4.30665 19.0266L10.36 12.96C10.9541 12.3639 11.7547 12.019 12.596 11.9967C13.4373 11.9743 14.255 12.2763 14.88 12.84L15.04 12.9733C15.2928 13.2209 15.6336 13.3578 15.9875 13.3541C16.3413 13.3503 16.6791 13.2062 16.9267 12.9533C17.1742 12.7005 17.3111 12.3597 17.3074 12.0058C17.3036 11.652 17.1595 11.3142 16.9067 11.0666C16.8314 10.9693 16.7513 10.8759 16.6667 10.7866C15.5285 9.7964 14.0564 9.27578 12.5487 9.33024C11.0411 9.38471 9.61043 10.0102 8.54665 11.08L2.41332 17.1466C1.37113 18.281 0.807479 19.7742 0.840085 21.3143C0.87269 22.8544 1.49903 24.3224 2.5883 25.4117C3.67756 26.5009 5.14554 27.1273 6.68565 27.1599C8.22576 27.1925 9.71893 26.6288 10.8533 25.5867L13.16 23.3333C13.3877 23.0848 13.5129 22.7593 13.5104 22.4223C13.5079 22.0852 13.3777 21.7617 13.1463 21.5167C12.9148 21.2717 12.5991 21.1234 12.2627 21.1018C11.9264 21.0801 11.5943 21.1867 11.3333 21.4V21.4ZM25.5867 2.41332C24.465 1.29866 22.9479 0.673035 21.3667 0.673035C19.7854 0.673035 18.2683 1.29866 17.1467 2.41332L14.84 4.66665C14.6122 4.91512 14.487 5.24062 14.4896 5.57767C14.4921 5.91472 14.6222 6.2383 14.8537 6.4833C15.0852 6.7283 15.4009 6.87653 15.7372 6.89818C16.0736 6.91983 16.4057 6.81329 16.6667 6.59998L18.9733 4.30665C19.5922 3.68781 20.4315 3.34015 21.3067 3.34015C22.1818 3.34015 23.0211 3.68781 23.64 4.30665C24.2588 4.92549 24.6065 5.76481 24.6065 6.63998C24.6065 7.51515 24.2588 8.35448 23.64 8.97332L17.5867 15.04C16.9925 15.6361 16.192 15.9809 15.3506 16.0033C14.5093 16.0256 13.6916 15.7237 13.0667 15.16L12.9067 15.0266C12.6538 14.7791 12.313 14.6422 11.9592 14.6459C11.6054 14.6497 11.2675 14.7938 11.02 15.0466C10.7724 15.2995 10.6355 15.6403 10.6392 15.9941C10.643 16.3479 10.7871 16.6858 11.04 16.9333C11.1368 17.0324 11.2392 17.1259 11.3467 17.2133C12.4862 18.2006 13.9576 18.7192 15.4644 18.6648C16.9712 18.6104 18.4013 17.9869 19.4667 16.92L25.5333 10.8533C26.6551 9.73875 27.2903 8.22562 27.3003 6.64431C27.3103 5.06301 26.6942 3.54197 25.5867 2.41332V2.41332Z" fill="white"/>
</svg>
