<svg width="14" height="14" viewBox="0 0 14 14" fill="none" xmlns="http://www.w3.org/2000/svg">
<path d="M13 9.66667H3.66671C3.4899 9.66667 3.32033 9.59643 3.1953 9.4714C3.07028 9.34638 3.00004 9.17681 3.00004 9C3.00004 8.82319 3.07028 8.65362 3.1953 8.52859C3.32033 8.40357 3.4899 8.33333 3.66671 8.33333H10.6267C11.0725 8.33336 11.5055 8.18446 11.857 7.91028C12.2084 7.63611 12.4582 7.25237 12.5667 6.82L13.6667 2.49333C13.6917 2.39494 13.6938 2.29214 13.673 2.19278C13.6523 2.09342 13.609 2.00012 13.5467 1.92C13.4819 1.83782 13.3986 1.77206 13.3036 1.72805C13.2087 1.68404 13.1047 1.66301 13 1.66667H3.50671C3.36917 1.27763 3.11466 0.940664 2.77808 0.701958C2.44151 0.463251 2.03934 0.334492 1.62671 0.333332H1.00004C0.82323 0.333332 0.65366 0.40357 0.528636 0.528594C0.403612 0.653618 0.333374 0.823188 0.333374 0.999999C0.333374 1.17681 0.403612 1.34638 0.528636 1.4714C0.65366 1.59643 0.82323 1.66667 1.00004 1.66667H1.62671C1.779 1.66223 1.92821 1.71009 2.04951 1.80227C2.17081 1.89446 2.25687 2.02541 2.29337 2.17333L2.33337 2.49333L3.48671 7C2.95627 7.02387 2.45705 7.25747 2.09885 7.64943C1.74066 8.04138 1.55284 8.55957 1.57671 9.09C1.60058 9.62043 1.83418 10.1197 2.22613 10.4779C2.61808 10.836 3.13627 11.0239 3.66671 11H3.78671C3.67706 11.3021 3.64183 11.6261 3.68399 11.9447C3.72616 12.2633 3.84447 12.5671 4.02892 12.8302C4.21337 13.0934 4.45852 13.3082 4.74361 13.4566C5.0287 13.6049 5.34534 13.6823 5.66671 13.6823C5.98808 13.6823 6.30471 13.6049 6.58981 13.4566C6.8749 13.3082 7.12005 13.0934 7.30449 12.8302C7.48894 12.5671 7.60726 12.2633 7.64942 11.9447C7.69158 11.6261 7.65635 11.3021 7.54671 11H9.12004C9.0104 11.3021 8.97517 11.6261 9.01733 11.9447C9.05949 12.2633 9.1778 12.5671 9.36225 12.8302C9.5467 13.0934 9.79185 13.3082 10.0769 13.4566C10.362 13.6049 10.6787 13.6823 11 13.6823C11.3214 13.6823 11.638 13.6049 11.9231 13.4566C12.2082 13.3082 12.4534 13.0934 12.6378 12.8302C12.8223 12.5671 12.9406 12.2633 12.9828 11.9447C13.0249 11.6261 12.9897 11.3021 12.88 11H13C13.1769 11 13.3464 10.9298 13.4714 10.8047C13.5965 10.6797 13.6667 10.5101 13.6667 10.3333C13.6667 10.1565 13.5965 9.98695 13.4714 9.86193C13.3464 9.7369 13.1769 9.66667 13 9.66667ZM12.1467 3L11.2734 6.49333C11.2369 6.64125 11.1508 6.7722 11.0295 6.86439C10.9082 6.95658 10.759 7.00444 10.6067 7H4.85337L3.85337 3H12.1467ZM5.66671 12.3333C5.53485 12.3333 5.40596 12.2942 5.29633 12.221C5.18669 12.1477 5.10125 12.0436 5.05079 11.9218C5.00033 11.8 4.98713 11.6659 5.01285 11.5366C5.03857 11.4073 5.10207 11.2885 5.1953 11.1953C5.28854 11.102 5.40733 11.0385 5.53665 11.0128C5.66597 10.9871 5.80001 11.0003 5.92183 11.0507C6.04365 11.1012 6.14777 11.1867 6.22102 11.2963C6.29427 11.4059 6.33337 11.5348 6.33337 11.6667C6.33337 11.8435 6.26314 12.013 6.13811 12.1381C6.01309 12.2631 5.84352 12.3333 5.66671 12.3333ZM11 12.3333C10.8682 12.3333 10.7393 12.2942 10.6297 12.221C10.52 12.1477 10.4346 12.0436 10.3841 11.9218C10.3337 11.8 10.3205 11.6659 10.3462 11.5366C10.3719 11.4073 10.4354 11.2885 10.5286 11.1953C10.6219 11.102 10.7407 11.0385 10.87 11.0128C10.9993 10.9871 11.1333 11.0003 11.2552 11.0507C11.377 11.1012 11.4811 11.1867 11.5544 11.2963C11.6276 11.4059 11.6667 11.5348 11.6667 11.6667C11.6667 11.8435 11.5965 12.013 11.4714 12.1381C11.3464 12.2631 11.1769 12.3333 11 12.3333Z" fill="#E6E6E6"/>
</svg>
