<svg width="48" height="48" viewBox="0 0 48 48" fill="none" xmlns="http://www.w3.org/2000/svg">
<path d="M30.3465 16.51L20.3365 26.5433L16.4865 22.6933C16.2773 22.449 16.0199 22.2507 15.7304 22.1106C15.441 21.9705 15.1256 21.8918 14.8043 21.8794C14.483 21.867 14.1625 21.9212 13.8631 22.0385C13.5637 22.1558 13.2917 22.3337 13.0643 22.5611C12.8369 22.7885 12.659 23.0604 12.5417 23.3599C12.4244 23.6593 12.3702 23.9797 12.3827 24.3011C12.3951 24.6224 12.4738 24.9377 12.6138 25.2272C12.7539 25.5167 12.9523 25.7741 13.1965 25.9833L18.6798 31.49C18.8979 31.7062 19.1564 31.8773 19.4407 31.9934C19.725 32.1095 20.0294 32.1684 20.3365 32.1666C20.9486 32.164 21.5352 31.921 21.9698 31.49L33.6365 19.8233C33.8552 19.6064 34.0288 19.3483 34.1473 19.064C34.2657 18.7796 34.3267 18.4747 34.3267 18.1666C34.3267 17.8586 34.2657 17.5536 34.1473 17.2693C34.0288 16.9849 33.8552 16.7269 33.6365 16.51C33.1993 16.0754 32.6079 15.8314 31.9915 15.8314C31.3751 15.8314 30.7837 16.0754 30.3465 16.51ZM23.9998 0.666626C19.385 0.666626 14.8737 2.0351 11.0365 4.599C7.19939 7.1629 4.2087 10.8071 2.44266 15.0707C0.676614 19.3343 0.214536 24.0258 1.11486 28.5521C2.01518 33.0783 4.23746 37.2359 7.50069 40.4991C10.7639 43.7623 14.9215 45.9846 19.4477 46.8849C23.974 47.7853 28.6655 47.3232 32.9291 45.5571C37.1927 43.7911 40.8369 40.8004 43.4008 36.9633C45.9647 33.1261 47.3332 28.6149 47.3332 24C47.3332 20.9358 46.7296 17.9016 45.557 15.0707C44.3844 12.2397 42.6657 9.6675 40.499 7.5008C38.3323 5.3341 35.7601 3.61538 32.9291 2.44277C30.0982 1.27016 27.064 0.666626 23.9998 0.666626V0.666626ZM23.9998 42.6666C20.3079 42.6666 16.6989 41.5718 13.6292 39.5207C10.5595 37.4696 8.16693 34.5543 6.7541 31.1434C5.34126 27.7325 4.9716 23.9793 5.69186 20.3583C6.41211 16.7373 8.18994 13.4112 10.8005 10.8006C13.4111 8.19005 16.7372 6.41223 20.3582 5.69197C23.9791 4.97171 27.7324 5.34137 31.1433 6.75421C34.5542 8.16704 37.4695 10.5596 39.5206 13.6293C41.5717 16.699 42.6665 20.308 42.6665 24C42.6665 28.9507 40.6999 33.6986 37.1992 37.1993C33.6985 40.7 28.9506 42.6666 23.9998 42.6666V42.6666Z" fill="#E4B900"/>
</svg>
