<svg width="28" height="28" viewBox="0 0 28 28" fill="none" xmlns="http://www.w3.org/2000/svg">
<path d="M17.6267 9.71996L11.9067 15.4533L9.70666 13.2533C9.58713 13.1137 9.44004 13.0004 9.27462 12.9203C9.1092 12.8403 8.92903 12.7953 8.7454 12.7882C8.56177 12.7811 8.37867 12.8121 8.20756 12.8791C8.03646 12.9461 7.88107 13.0478 7.75113 13.1778C7.62119 13.3077 7.51951 13.4631 7.45248 13.6342C7.38545 13.8053 7.35451 13.9884 7.3616 14.172C7.36869 14.3557 7.41366 14.5358 7.4937 14.7013C7.57373 14.8667 7.68709 15.0138 7.82666 15.1333L10.96 18.28C11.0846 18.4035 11.2323 18.5013 11.3948 18.5677C11.5572 18.634 11.7312 18.6676 11.9067 18.6666C12.2565 18.6652 12.5916 18.5263 12.84 18.28L19.5067 11.6133C19.6316 11.4893 19.7308 11.3419 19.7985 11.1794C19.8662 11.0169 19.9011 10.8426 19.9011 10.6666C19.9011 10.4906 19.8662 10.3163 19.7985 10.1539C19.7308 9.99138 19.6316 9.84391 19.5067 9.71996C19.2568 9.47162 18.9189 9.33224 18.5667 9.33224C18.2144 9.33224 17.8765 9.47162 17.6267 9.71996ZM14 0.666626C11.3629 0.666626 8.78505 1.44861 6.59239 2.9137C4.39974 4.37878 2.69077 6.46117 1.6816 8.89751C0.672434 11.3339 0.408389 14.0148 0.922859 16.6012C1.43733 19.1876 2.70721 21.5634 4.57191 23.4281C6.43661 25.2928 8.81238 26.5626 11.3988 27.0771C13.9852 27.5916 16.6661 27.3275 19.1024 26.3184C21.5388 25.3092 23.6212 23.6002 25.0863 21.4076C26.5513 19.2149 27.3333 16.637 27.3333 14C27.3333 12.249 26.9885 10.5152 26.3184 8.89751C25.6483 7.27984 24.6662 5.80998 23.4281 4.57187C22.19 3.33375 20.7201 2.35163 19.1024 1.68157C17.4848 1.0115 15.751 0.666626 14 0.666626V0.666626ZM14 24.6666C11.8903 24.6666 9.82804 24.041 8.07391 22.869C6.31979 21.6969 4.95262 20.031 4.14528 18.0819C3.33795 16.1328 3.12671 13.9881 3.53829 11.919C3.94986 9.84987 4.96576 7.94925 6.45752 6.45749C7.94928 4.96573 9.8499 3.94983 11.919 3.53825C13.9882 3.12667 16.1329 3.33791 18.082 4.14524C20.031 4.95258 21.6969 6.31975 22.869 8.07388C24.0411 9.828 24.6667 11.8903 24.6667 14C24.6667 16.8289 23.5429 19.542 21.5425 21.5424C19.5421 23.5428 16.829 24.6666 14 24.6666V24.6666Z" fill="white"/>
</svg>
