<svg width="48" height="48" viewBox="0 0 48 48" fill="none" xmlns="http://www.w3.org/2000/svg">
<path d="M32.6566 15.3433C32.4397 15.1246 32.1816 14.951 31.8973 14.8325C31.6129 14.7141 31.308 14.6531 30.9999 14.6531C30.6919 14.6531 30.3869 14.7141 30.1026 14.8325C29.8183 14.951 29.5602 15.1246 29.3433 15.3433L23.9999 20.7099L18.6566 15.3433C18.2172 14.9039 17.6213 14.6571 16.9999 14.6571C16.3786 14.6571 15.7826 14.9039 15.3433 15.3433C14.9039 15.7826 14.6571 16.3786 14.6571 16.9999C14.6571 17.6213 14.9039 18.2172 15.3433 18.6566L20.7099 23.9999L15.3433 29.3433C15.1246 29.5602 14.951 29.8183 14.8325 30.1026C14.7141 30.3869 14.6531 30.6919 14.6531 30.9999C14.6531 31.308 14.7141 31.6129 14.8325 31.8973C14.951 32.1816 15.1246 32.4397 15.3433 32.6566C15.5602 32.8753 15.8183 33.0489 16.1026 33.1674C16.3869 33.2858 16.6919 33.3468 16.9999 33.3468C17.308 33.3468 17.6129 33.2858 17.8973 33.1674C18.1816 33.0489 18.4397 32.8753 18.6566 32.6566L23.9999 27.2899L29.3433 32.6566C29.5602 32.8753 29.8183 33.0489 30.1026 33.1674C30.3869 33.2858 30.6919 33.3468 30.9999 33.3468C31.308 33.3468 31.6129 33.2858 31.8973 33.1674C32.1816 33.0489 32.4397 32.8753 32.6566 32.6566C32.8753 32.4397 33.0489 32.1816 33.1674 31.8973C33.2858 31.6129 33.3468 31.308 33.3468 30.9999C33.3468 30.6919 33.2858 30.3869 33.1674 30.1026C33.0489 29.8183 32.8753 29.5602 32.6566 29.3433L27.2899 23.9999L32.6566 18.6566C32.8753 18.4397 33.0489 18.1816 33.1674 17.8973C33.2858 17.6129 33.3468 17.308 33.3468 16.9999C33.3468 16.6919 33.2858 16.3869 33.1674 16.1026C33.0489 15.8183 32.8753 15.5602 32.6566 15.3433V15.3433ZM40.4966 7.50327C38.3442 5.2747 35.7695 3.49712 32.9227 2.27424C30.076 1.05137 27.0142 0.407686 23.916 0.380764C20.8178 0.353841 17.7453 0.944215 14.8777 2.11744C12.0101 3.29066 9.40489 5.02323 7.21406 7.21406C5.02323 9.40489 3.29066 12.0101 2.11744 14.8777C0.944215 17.7453 0.353841 20.8178 0.380764 23.916C0.407686 27.0142 1.05137 30.076 2.27424 32.9227C3.49712 35.7695 5.2747 38.3442 7.50327 40.4966C9.6557 42.7252 12.2304 44.5028 15.0772 45.7256C17.9239 46.9485 20.9857 47.5922 24.0839 47.6191C27.1821 47.646 30.2546 47.0557 33.1222 45.8824C35.9898 44.7092 38.595 42.9767 40.7858 40.7858C42.9767 38.595 44.7092 35.9898 45.8824 33.1222C47.0557 30.2546 47.646 27.1821 47.6191 24.0839C47.5922 20.9857 46.9485 17.9239 45.7256 15.0772C44.5028 12.2304 42.7252 9.6557 40.4966 7.50327V7.50327ZM37.2066 37.2066C34.1547 40.2619 30.1379 42.1645 25.8405 42.5903C21.5431 43.0161 17.231 41.9387 13.6388 39.5417C10.0467 37.1447 7.39678 33.5764 6.14054 29.4447C4.88431 25.313 5.09949 20.8736 6.74941 16.8828C8.39933 12.8919 11.3819 9.59662 15.189 7.55825C18.9961 5.51988 23.3922 4.86458 27.6283 5.70398C31.8644 6.54338 35.6784 8.82555 38.4205 12.1617C41.1626 15.4978 42.6632 19.6815 42.6666 23.9999C42.6749 26.4529 42.1967 28.8832 41.2594 31.1502C40.3222 33.4171 38.9447 35.4756 37.2066 37.2066V37.2066Z" fill="#C62829"/>
</svg>
