<svg width="24" height="28" viewBox="0 0 24 28" fill="none" xmlns="http://www.w3.org/2000/svg">
<path d="M23.32 8.02665C23.3124 7.9915 23.3124 7.95514 23.32 7.91999C23.3135 7.88921 23.3135 7.85743 23.32 7.82665V7.70665L23.24 7.50665C23.2075 7.45208 23.167 7.40265 23.12 7.35999L23 7.25332H22.9333L17.68 3.93332L12.72 0.866652C12.6052 0.775626 12.4739 0.707706 12.3333 0.666652H12.2266C12.1075 0.64676 11.9858 0.64676 11.8666 0.666652H11.7333C11.5784 0.700909 11.4299 0.759407 11.2933 0.839986L1.3333 7.03999L1.2133 7.13332L1.0933 7.23999L0.959969 7.33332L0.893302 7.41332L0.813302 7.61332V7.73332V7.81332C0.800351 7.90174 0.800351 7.99157 0.813302 8.07999V19.72C0.812849 19.9466 0.87015 20.1695 0.979797 20.3678C1.08944 20.5661 1.24782 20.7332 1.43997 20.8533L11.44 27.04L11.64 27.12H11.7466C11.9722 27.1915 12.2144 27.1915 12.44 27.12H12.5466L12.7466 27.04L22.6666 20.9467C22.8588 20.8266 23.0172 20.6595 23.1268 20.4612C23.2365 20.2629 23.2938 20.0399 23.2933 19.8133V8.17332C23.2933 8.17332 23.32 8.07999 23.32 8.02665ZM12 3.55999L14.3733 5.02665L6.91997 9.63999L4.5333 8.17332L12 3.55999ZM10.6666 23.56L3.3333 19.08V10.56L10.6666 15.0933V23.56ZM12 12.7467L9.4533 11.2133L16.9066 6.58665L19.4666 8.17332L12 12.7467ZM20.6666 19.04L13.3333 23.6V15.0933L20.6666 10.56V19.04Z" fill="white"/>
</svg>
