<svg width="16" height="14" viewBox="0 0 16 14" fill="none" xmlns="http://www.w3.org/2000/svg">
<path d="M14.666 9.66668H13.2127C13.2903 9.45289 13.3309 9.22744 13.3327 9.00001V5.66668C13.3327 5.13624 13.122 4.62754 12.7469 4.25246C12.3718 3.87739 11.8631 3.66668 11.3327 3.66668H7.33268C6.80225 3.66668 6.29354 3.87739 5.91847 4.25246C5.5434 4.62754 5.33268 5.13624 5.33268 5.66668V9.00001C5.33449 9.22744 5.37507 9.45289 5.45268 9.66668H4.66602C4.4892 9.66668 4.31964 9.59644 4.19461 9.47141C4.06959 9.34639 3.99935 9.17682 3.99935 9.00001V2.33334C3.99935 1.80291 3.78864 1.2942 3.41356 0.91913C3.03849 0.544057 2.52978 0.333344 1.99935 0.333344H1.33268C1.15587 0.333344 0.986302 0.403581 0.861278 0.528606C0.736253 0.65363 0.666016 0.823199 0.666016 1.00001C0.666016 1.17682 0.736253 1.34639 0.861278 1.47141C0.986302 1.59644 1.15587 1.66668 1.33268 1.66668H1.99935C2.17616 1.66668 2.34573 1.73691 2.47075 1.86194C2.59578 1.98696 2.66602 2.15653 2.66602 2.33334V9.00001C2.66847 9.43794 2.8146 9.86295 3.08196 10.2098C3.34933 10.5566 3.72314 10.8062 4.14602 10.92C4.02324 11.2204 3.97539 11.5461 4.00659 11.8691C4.0378 12.1921 4.14712 12.5026 4.32513 12.7739C4.50314 13.0452 4.74449 13.2691 5.02835 13.4264C5.31221 13.5836 5.63006 13.6693 5.95448 13.6763C6.27889 13.6832 6.60012 13.6112 6.89046 13.4663C7.1808 13.3213 7.43151 13.108 7.62098 12.8445C7.81045 12.5811 7.93297 12.2755 7.97799 11.9542C8.023 11.6328 7.98915 11.3054 7.87935 11H10.1193C10.0097 11.3021 9.97447 11.6262 10.0166 11.9447C10.0588 12.2633 10.1771 12.5671 10.3616 12.8302C10.546 13.0934 10.7912 13.3083 11.0763 13.4566C11.3613 13.6049 11.678 13.6824 11.9993 13.6824C12.3207 13.6824 12.6374 13.6049 12.9224 13.4566C13.2075 13.3083 13.4527 13.0934 13.6371 12.8302C13.8216 12.5671 13.9399 12.2633 13.9821 11.9447C14.0242 11.6262 13.989 11.3021 13.8793 11H14.666C14.8428 11 15.0124 10.9298 15.1374 10.8047C15.2624 10.6797 15.3327 10.5102 15.3327 10.3333C15.3327 10.1565 15.2624 9.98696 15.1374 9.86194C15.0124 9.73691 14.8428 9.66668 14.666 9.66668ZM5.99935 12.3333C5.86749 12.3333 5.7386 12.2942 5.62897 12.221C5.51934 12.1477 5.43389 12.0436 5.38343 11.9218C5.33297 11.8 5.31977 11.6659 5.34549 11.5366C5.37122 11.4073 5.43471 11.2885 5.52794 11.1953C5.62118 11.102 5.73997 11.0385 5.86929 11.0128C5.99861 10.9871 6.13265 11.0003 6.25447 11.0508C6.37629 11.1012 6.48041 11.1867 6.55366 11.2963C6.62692 11.4059 6.66602 11.5348 6.66602 11.6667C6.66602 11.8435 6.59578 12.0131 6.47075 12.1381C6.34573 12.2631 6.17616 12.3333 5.99935 12.3333ZM7.33268 9.66668C7.15587 9.66668 6.9863 9.59644 6.86128 9.47141C6.73625 9.34639 6.66602 9.17682 6.66602 9.00001V5.66668C6.66602 5.48987 6.73625 5.3203 6.86128 5.19527C6.9863 5.07025 7.15587 5.00001 7.33268 5.00001H11.3327C11.5095 5.00001 11.6791 5.07025 11.8041 5.19527C11.9291 5.3203 11.9993 5.48987 11.9993 5.66668V9.00001C11.9993 9.17682 11.9291 9.34639 11.8041 9.47141C11.6791 9.59644 11.5095 9.66668 11.3327 9.66668H7.33268ZM11.9993 12.3333C11.8675 12.3333 11.7386 12.2942 11.629 12.221C11.5193 12.1477 11.4339 12.0436 11.3834 11.9218C11.333 11.8 11.3198 11.6659 11.3455 11.5366C11.3712 11.4073 11.4347 11.2885 11.5279 11.1953C11.6212 11.102 11.74 11.0385 11.8693 11.0128C11.9986 10.9871 12.1327 11.0003 12.2545 11.0508C12.3763 11.1012 12.4804 11.1867 12.5537 11.2963C12.6269 11.4059 12.666 11.5348 12.666 11.6667C12.666 11.8435 12.5958 12.0131 12.4708 12.1381C12.3457 12.2631 12.1762 12.3333 11.9993 12.3333Z" fill="#E4B900"/>
</svg>
