<svg width="14" height="14" viewBox="0 0 14 14" fill="none" xmlns="http://www.w3.org/2000/svg">
<path d="M13.6666 5.44664C13.6245 5.3247 13.5479 5.21759 13.4462 5.13831C13.3444 5.05903 13.2218 5.01097 13.0933 4.99997L9.29994 4.44664L7.59994 0.999975C7.54535 0.887261 7.46012 0.792203 7.354 0.72569C7.24789 0.659178 7.12518 0.623901 6.99994 0.623901C6.87471 0.623901 6.752 0.659178 6.64589 0.72569C6.53977 0.792203 6.45453 0.887261 6.39994 0.999975L4.69994 4.43997L0.906611 4.99997C0.783226 5.01751 0.667227 5.06928 0.571778 5.14941C0.476328 5.22954 0.405251 5.33482 0.366611 5.45331C0.331241 5.56909 0.328067 5.69232 0.357429 5.80977C0.386792 5.92722 0.447583 6.03446 0.533278 6.11997L3.28661 8.78664L2.61994 12.5733C2.59303 12.6989 2.60298 12.8296 2.6486 12.9497C2.69422 13.0698 2.77357 13.1742 2.8771 13.2502C2.98063 13.3263 3.10393 13.3708 3.23216 13.3785C3.3604 13.3861 3.48812 13.3565 3.59994 13.2933L6.99994 11.5133L10.3999 13.2933C10.4935 13.3461 10.5992 13.3737 10.7066 13.3733C10.8478 13.3738 10.9856 13.3295 11.0999 13.2466C11.2034 13.1725 11.2834 13.0704 11.3307 12.9523C11.3779 12.8341 11.3904 12.705 11.3666 12.58L10.6999 8.79331L13.4533 6.12664C13.5495 6.04509 13.6207 5.93791 13.6584 5.81754C13.6962 5.69717 13.699 5.56856 13.6666 5.44664ZM9.56661 8.11331C9.48945 8.18825 9.43156 8.28074 9.3979 8.3829C9.36423 8.48506 9.35579 8.59384 9.37328 8.69997L9.85328 11.5L7.34661 10.1666C7.24919 10.1184 7.14197 10.0934 7.03328 10.0934C6.92459 10.0934 6.81736 10.1184 6.71994 10.1666L4.21328 11.5L4.69328 8.69997C4.71077 8.59384 4.70232 8.48506 4.66866 8.3829C4.63499 8.28074 4.57711 8.18825 4.49994 8.11331L2.49994 6.11331L5.30661 5.70664C5.41461 5.69162 5.51728 5.65034 5.60561 5.58641C5.69394 5.52248 5.76525 5.43787 5.81328 5.33997L6.99994 2.79997L8.25328 5.34664C8.30131 5.44453 8.37261 5.52915 8.46095 5.59308C8.54928 5.657 8.65195 5.69829 8.75994 5.71331L11.5666 6.11997L9.56661 8.11331Z" fill="#464654"/>
</svg>
