<svg width="14" height="12" viewBox="0 0 14 12" fill="none" xmlns="http://www.w3.org/2000/svg">
<path d="M13.6666 5.29317C13.6597 5.23193 13.6463 5.17159 13.6266 5.11317V5.05317C13.5946 4.98462 13.5518 4.92161 13.5 4.8665V4.8665L9.49998 0.866504C9.44487 0.814648 9.38186 0.771891 9.31331 0.739837H9.24665C9.18182 0.705173 9.11216 0.680452 9.03998 0.666504H2.33331C1.80288 0.666504 1.29417 0.877218 0.9191 1.25229C0.544027 1.62736 0.333313 2.13607 0.333313 2.6665V9.33317C0.333313 9.8636 0.544027 10.3723 0.9191 10.7474C1.29417 11.1225 1.80288 11.3332 2.33331 11.3332H11.6666C12.1971 11.3332 12.7058 11.1225 13.0809 10.7474C13.4559 10.3723 13.6666 9.8636 13.6666 9.33317V5.33317C13.6666 5.33317 13.6666 5.33317 13.6666 5.29317ZM9.66665 2.93984L11.3933 4.6665H10.3333C10.1565 4.6665 9.98693 4.59627 9.86191 4.47124C9.73688 4.34622 9.66665 4.17665 9.66665 3.99984V2.93984ZM12.3333 9.33317C12.3333 9.50998 12.2631 9.67955 12.1381 9.80458C12.013 9.9296 11.8435 9.99984 11.6666 9.99984H2.33331C2.1565 9.99984 1.98693 9.9296 1.86191 9.80458C1.73688 9.67955 1.66665 9.50998 1.66665 9.33317V2.6665C1.66665 2.48969 1.73688 2.32012 1.86191 2.1951C1.98693 2.07008 2.1565 1.99984 2.33331 1.99984H8.33331V3.99984C8.33331 4.53027 8.54403 5.03898 8.9191 5.41405C9.29417 5.78912 9.80288 5.99984 10.3333 5.99984H12.3333V9.33317ZM3.66665 5.99984H6.33331C6.51012 5.99984 6.67969 5.9296 6.80472 5.80457C6.92974 5.67955 6.99998 5.50998 6.99998 5.33317C6.99998 5.15636 6.92974 4.98679 6.80472 4.86177C6.67969 4.73674 6.51012 4.6665 6.33331 4.6665H3.66665C3.48984 4.6665 3.32027 4.73674 3.19524 4.86177C3.07022 4.98679 2.99998 5.15636 2.99998 5.33317C2.99998 5.50998 3.07022 5.67955 3.19524 5.80457C3.32027 5.9296 3.48984 5.99984 3.66665 5.99984ZM3.66665 7.33317C3.48984 7.33317 3.32027 7.40341 3.19524 7.52843C3.07022 7.65346 2.99998 7.82303 2.99998 7.99984C2.99998 8.17665 3.07022 8.34622 3.19524 8.47124C3.32027 8.59627 3.48984 8.6665 3.66665 8.6665H10.3333C10.5101 8.6665 10.6797 8.59627 10.8047 8.47124C10.9297 8.34622 11 8.17665 11 7.99984C11 7.82303 10.9297 7.65346 10.8047 7.52843C10.6797 7.40341 10.5101 7.33317 10.3333 7.33317H3.66665Z" fill="black"/>
</svg>
