<svg width="12" height="14" viewBox="0 0 12 14" fill="none" xmlns="http://www.w3.org/2000/svg">
<path d="M10 1.98667C8.93913 0.925801 7.50029 0.329813 6 0.329813C4.49971 0.329813 3.06087 0.925801 2 1.98667C0.939135 3.04753 0.343147 4.48638 0.343147 5.98667C0.343147 7.48696 0.939135 8.9258 2 9.98667L5.51333 13.5067C5.57531 13.5692 5.64904 13.6187 5.73028 13.6526C5.81152 13.6864 5.89866 13.7039 5.98667 13.7039C6.07468 13.7039 6.16181 13.6864 6.24305 13.6526C6.32429 13.6187 6.39803 13.5692 6.46 13.5067L10 9.95333C11.0564 8.89688 11.6499 7.46404 11.6499 5.97C11.6499 4.47596 11.0564 3.04312 10 1.98667ZM9.04667 9L6 12.06L2.95333 9C2.35143 8.39754 1.94165 7.63016 1.7758 6.79486C1.60994 5.95956 1.69546 5.09383 2.02154 4.30712C2.34761 3.52041 2.89961 2.84803 3.60775 2.37499C4.3159 1.90194 5.14839 1.64945 6 1.64945C6.85161 1.64945 7.6841 1.90194 8.39225 2.37499C9.10039 2.84803 9.65239 3.52041 9.97846 4.30712C10.3045 5.09383 10.3901 5.95956 10.2242 6.79486C10.0584 7.63016 9.64857 8.39754 9.04667 9ZM4 3.94C3.46181 4.47985 3.1596 5.21104 3.1596 5.97333C3.1596 6.73562 3.46181 7.46682 4 8.00667C4.39984 8.40719 4.90906 8.68072 5.46377 8.79294C6.01848 8.90515 6.59397 8.85106 7.11805 8.63744C7.64213 8.42382 8.09146 8.06019 8.40965 7.59217C8.72785 7.12415 8.90076 6.57258 8.90667 6.00667C8.90967 5.6288 8.83688 5.25417 8.6926 4.90493C8.54832 4.55568 8.33548 4.2389 8.06667 3.97333C7.80245 3.70305 7.48739 3.48769 7.13962 3.33964C6.79184 3.1916 6.41823 3.11378 6.04027 3.11069C5.66231 3.10759 5.28747 3.17927 4.93732 3.32159C4.58716 3.46392 4.26862 3.67409 4 3.94ZM7.12667 7.06C6.87403 7.31649 6.54014 7.47727 6.18209 7.51484C5.82403 7.5524 5.46404 7.46443 5.16367 7.26595C4.8633 7.06748 4.6412 6.77083 4.53534 6.42672C4.42948 6.08262 4.44643 5.71242 4.58331 5.37944C4.72018 5.04645 4.96847 4.77134 5.28572 4.60116C5.60298 4.43097 5.9695 4.37627 6.32263 4.44641C6.67575 4.51655 6.99354 4.70717 7.22167 4.98569C7.44981 5.2642 7.57411 5.61331 7.57333 5.97333C7.56364 6.38485 7.391 6.77569 7.09333 7.06H7.12667Z" fill="#E6E6E6"/>
</svg>
