<svg width="22" height="28" viewBox="0 0 22 28" fill="none" xmlns="http://www.w3.org/2000/svg">
<path d="M17.6668 0.666626H4.3335C3.27263 0.666626 2.25521 1.08805 1.50507 1.8382C0.754924 2.58834 0.333496 3.60576 0.333496 4.66663V23.3333C0.333496 24.3942 0.754924 25.4116 1.50507 26.1617C2.25521 26.9119 3.27263 27.3333 4.3335 27.3333H17.6668C18.7277 27.3333 19.7451 26.9119 20.4953 26.1617C21.2454 25.4116 21.6668 24.3942 21.6668 23.3333V4.66663C21.6668 3.60576 21.2454 2.58834 20.4953 1.8382C19.7451 1.08805 18.7277 0.666626 17.6668 0.666626ZM19.0002 23.3333C19.0002 23.6869 18.8597 24.0261 18.6096 24.2761C18.3596 24.5262 18.0205 24.6666 17.6668 24.6666H4.3335C3.97987 24.6666 3.64074 24.5262 3.39069 24.2761C3.14064 24.0261 3.00016 23.6869 3.00016 23.3333V4.66663C3.00016 4.313 3.14064 3.97387 3.39069 3.72382C3.64074 3.47377 3.97987 3.33329 4.3335 3.33329H17.6668C18.0205 3.33329 18.3596 3.47377 18.6096 3.72382C18.8597 3.97387 19.0002 4.313 19.0002 4.66663V23.3333ZM14.1735 12.4C14.7023 11.7109 14.9925 10.8685 15.0002 9.99996C15.0002 8.93909 14.5787 7.92168 13.8286 7.17153C13.0784 6.42139 12.061 5.99996 11.0002 5.99996C9.9393 5.99996 8.92188 6.42139 8.17173 7.17153C7.42159 7.92168 7.00016 8.93909 7.00016 9.99996C7.00784 10.8685 7.29801 11.7109 7.82683 12.4C6.92488 13.0677 6.25653 14.0029 5.91692 15.0725C5.5773 16.1421 5.58373 17.2915 5.93528 18.3573C6.28684 19.423 6.9656 20.3507 7.87497 21.0083C8.78433 21.6658 9.87795 22.0198 11.0002 22.0198C12.1224 22.0198 13.216 21.6658 14.1254 21.0083C15.0347 20.3507 15.7135 19.423 16.065 18.3573C16.4166 17.2915 16.423 16.1421 16.0834 15.0725C15.7438 14.0029 15.0754 13.0677 14.1735 12.4V12.4ZM11.0002 8.66663C11.2639 8.66663 11.5217 8.74482 11.7409 8.89133C11.9602 9.03784 12.1311 9.24608 12.232 9.48971C12.3329 9.73335 12.3593 10.0014 12.3079 10.2601C12.2564 10.5187 12.1294 10.7563 11.943 10.9428C11.7565 11.1292 11.5189 11.2562 11.2603 11.3077C11.0016 11.3591 10.7336 11.3327 10.4899 11.2318C10.2463 11.1309 10.038 10.96 9.89154 10.7407C9.74503 10.5215 9.66683 10.2637 9.66683 9.99996C9.66683 9.64634 9.8073 9.3072 10.0574 9.05715C10.3074 8.8071 10.6465 8.66663 11.0002 8.66663V8.66663ZM11.0002 19.3333C10.4727 19.3333 9.95717 19.1769 9.51864 18.8839C9.08011 18.5909 8.73832 18.1744 8.53648 17.6871C8.33465 17.1998 8.28184 16.6637 8.38473 16.1464C8.48763 15.6291 8.7416 15.1539 9.11454 14.781C9.48748 14.4081 9.96264 14.1541 10.4799 14.0512C10.9972 13.9483 11.5334 14.0011 12.0207 14.2029C12.5079 14.4048 12.9244 14.7466 13.2174 15.1851C13.5104 15.6236 13.6668 16.1392 13.6668 16.6666C13.6668 17.3739 13.3859 18.0521 12.8858 18.5522C12.3857 19.0523 11.7074 19.3333 11.0002 19.3333Z" fill="#E4B900"/>
</svg>
