<svg width="22" height="28" viewBox="0 0 22 28" fill="none" xmlns="http://www.w3.org/2000/svg">
<path d="M7.00016 11.3333H8.3335C8.68712 11.3333 9.02626 11.1928 9.2763 10.9428C9.52635 10.6927 9.66683 10.3536 9.66683 9.99996C9.66683 9.64634 9.52635 9.3072 9.2763 9.05715C9.02626 8.8071 8.68712 8.66663 8.3335 8.66663H7.00016C6.64654 8.66663 6.3074 8.8071 6.05735 9.05715C5.80731 9.3072 5.66683 9.64634 5.66683 9.99996C5.66683 10.3536 5.80731 10.6927 6.05735 10.9428C6.3074 11.1928 6.64654 11.3333 7.00016 11.3333V11.3333ZM7.00016 14C6.64654 14 6.3074 14.1404 6.05735 14.3905C5.80731 14.6405 5.66683 14.9797 5.66683 15.3333C5.66683 15.6869 5.80731 16.0261 6.05735 16.2761C6.3074 16.5262 6.64654 16.6666 7.00016 16.6666H15.0002C15.3538 16.6666 15.6929 16.5262 15.943 16.2761C16.193 16.0261 16.3335 15.6869 16.3335 15.3333C16.3335 14.9797 16.193 14.6405 15.943 14.3905C15.6929 14.1404 15.3538 14 15.0002 14H7.00016ZM21.6668 9.91996C21.6529 9.79747 21.6261 9.6768 21.5868 9.55996V9.43996C21.5227 9.30287 21.4372 9.17685 21.3335 9.06663V9.06663L13.3335 1.06663C13.2233 0.962914 13.0973 0.877401 12.9602 0.813293C12.9204 0.807639 12.88 0.807639 12.8402 0.813293C12.7047 0.735614 12.5551 0.685752 12.4002 0.666626H4.3335C3.27263 0.666626 2.25521 1.08805 1.50507 1.8382C0.754924 2.58834 0.333496 3.60576 0.333496 4.66663V23.3333C0.333496 24.3942 0.754924 25.4116 1.50507 26.1617C2.25521 26.9119 3.27263 27.3333 4.3335 27.3333H17.6668C18.7277 27.3333 19.7451 26.9119 20.4953 26.1617C21.2454 25.4116 21.6668 24.3942 21.6668 23.3333V9.99996C21.6668 9.99996 21.6668 9.99996 21.6668 9.91996ZM13.6668 5.21329L17.1202 8.66663H15.0002C14.6465 8.66663 14.3074 8.52615 14.0574 8.2761C13.8073 8.02605 13.6668 7.68691 13.6668 7.33329V5.21329ZM19.0002 23.3333C19.0002 23.6869 18.8597 24.0261 18.6096 24.2761C18.3596 24.5262 18.0205 24.6666 17.6668 24.6666H4.3335C3.97987 24.6666 3.64074 24.5262 3.39069 24.2761C3.14064 24.0261 3.00016 23.6869 3.00016 23.3333V4.66663C3.00016 4.313 3.14064 3.97387 3.39069 3.72382C3.64074 3.47377 3.97987 3.33329 4.3335 3.33329H11.0002V7.33329C11.0002 8.39416 11.4216 9.41158 12.1717 10.1617C12.9219 10.9119 13.9393 11.3333 15.0002 11.3333H19.0002V23.3333ZM15.0002 19.3333H7.00016C6.64654 19.3333 6.3074 19.4738 6.05735 19.7238C5.80731 19.9739 5.66683 20.313 5.66683 20.6666C5.66683 21.0202 5.80731 21.3594 6.05735 21.6094C6.3074 21.8595 6.64654 22 7.00016 22H15.0002C15.3538 22 15.6929 21.8595 15.943 21.6094C16.193 21.3594 16.3335 21.0202 16.3335 20.6666C16.3335 20.313 16.193 19.9739 15.943 19.7238C15.6929 19.4738 15.3538 19.3333 15.0002 19.3333Z" fill="#E4B900"/>
</svg>
