<svg width="26" height="28" viewBox="0 0 26 28" fill="none" xmlns="http://www.w3.org/2000/svg">
<path d="M12.333 24.6667H4.33301C3.97939 24.6667 3.64025 24.5262 3.3902 24.2762C3.14015 24.0261 2.99967 23.687 2.99967 23.3334V4.66669C2.99967 4.31307 3.14015 3.97393 3.3902 3.72388C3.64025 3.47383 3.97939 3.33335 4.33301 3.33335H10.9997V7.33335C10.9997 8.39422 11.4211 9.41164 12.1712 10.1618C12.9214 10.9119 13.9388 11.3334 14.9997 11.3334H18.9997V18C18.9997 18.3536 19.1401 18.6928 19.3902 18.9428C19.6402 19.1929 19.9794 19.3334 20.333 19.3334C20.6866 19.3334 21.0258 19.1929 21.2758 18.9428C21.5259 18.6928 21.6663 18.3536 21.6663 18V10C21.6663 10 21.6663 10 21.6663 9.92002C21.6525 9.79753 21.6256 9.67686 21.5863 9.56002V9.44002C21.5222 9.30293 21.4367 9.17691 21.333 9.06669V9.06669L13.333 1.06669C13.2228 0.962975 13.0968 0.877462 12.9597 0.813354C12.9156 0.805633 12.8705 0.805633 12.8263 0.813354C12.6967 0.744024 12.5574 0.694583 12.413 0.666687H4.33301C3.27214 0.666687 2.25473 1.08811 1.50458 1.83826C0.754435 2.58841 0.333008 3.60582 0.333008 4.66669V23.3334C0.333008 24.3942 0.754435 25.4116 1.50458 26.1618C2.25473 26.9119 3.27214 27.3334 4.33301 27.3334H12.333C12.6866 27.3334 13.0258 27.1929 13.2758 26.9428C13.5259 26.6928 13.6663 26.3536 13.6663 26C13.6663 25.6464 13.5259 25.3073 13.2758 25.0572C13.0258 24.8072 12.6866 24.6667 12.333 24.6667ZM13.6663 5.21335L17.1197 8.66669H14.9997C14.6461 8.66669 14.3069 8.52621 14.0569 8.27616C13.8068 8.02611 13.6663 7.68698 13.6663 7.33335V5.21335ZM6.99967 16.6667H14.9997C15.3533 16.6667 15.6924 16.5262 15.9425 16.2762C16.1925 16.0261 16.333 15.687 16.333 15.3334C16.333 14.9797 16.1925 14.6406 15.9425 14.3905C15.6924 14.1405 15.3533 14 14.9997 14H6.99967C6.64605 14 6.30691 14.1405 6.05687 14.3905C5.80682 14.6406 5.66634 14.9797 5.66634 15.3334C5.66634 15.687 5.80682 16.0261 6.05687 16.2762C6.30691 16.5262 6.64605 16.6667 6.99967 16.6667ZM12.333 19.3334H6.99967C6.64605 19.3334 6.30691 19.4738 6.05687 19.7239C5.80682 19.9739 5.66634 20.3131 5.66634 20.6667C5.66634 21.0203 5.80682 21.3594 6.05687 21.6095C6.30691 21.8595 6.64605 22 6.99967 22H12.333C12.6866 22 13.0258 21.8595 13.2758 21.6095C13.5259 21.3594 13.6663 21.0203 13.6663 20.6667C13.6663 20.3131 13.5259 19.9739 13.2758 19.7239C13.0258 19.4738 12.6866 19.3334 12.333 19.3334ZM6.99967 11.3334H8.33301C8.68663 11.3334 9.02577 11.1929 9.27582 10.9428C9.52587 10.6928 9.66634 10.3536 9.66634 10C9.66634 9.6464 9.52587 9.30726 9.27582 9.05721C9.02577 8.80716 8.68663 8.66669 8.33301 8.66669H6.99967C6.64605 8.66669 6.30691 8.80716 6.05687 9.05721C5.80682 9.30726 5.66634 9.6464 5.66634 10C5.66634 10.3536 5.80682 10.6928 6.05687 10.9428C6.30691 11.1929 6.64605 11.3334 6.99967 11.3334ZM25.2797 19.72C25.1557 19.5951 25.0083 19.4959 24.8458 19.4282C24.6833 19.3605 24.509 19.3256 24.333 19.3256C24.157 19.3256 23.9827 19.3605 23.8202 19.4282C23.6578 19.4959 23.5103 19.5951 23.3863 19.72L18.9997 24.12L17.2797 22.3867C17.1554 22.2624 17.0078 22.1638 16.8453 22.0965C16.6829 22.0292 16.5088 21.9946 16.333 21.9946C16.1572 21.9946 15.9831 22.0292 15.8207 22.0965C15.6582 22.1638 15.5107 22.2624 15.3863 22.3867C15.262 22.511 15.1634 22.6586 15.0961 22.821C15.0288 22.9835 14.9942 23.1575 14.9942 23.3334C14.9942 23.5092 15.0288 23.6833 15.0961 23.8457C15.1634 24.0081 15.262 24.1557 15.3863 24.28L18.053 26.9467C18.177 27.0717 18.3244 27.1709 18.4869 27.2385C18.6494 27.3062 18.8237 27.3411 18.9997 27.3411C19.1757 27.3411 19.35 27.3062 19.5124 27.2385C19.6749 27.1709 19.8224 27.0717 19.9463 26.9467L25.2797 21.6134C25.4046 21.4894 25.5038 21.3419 25.5715 21.1795C25.6392 21.017 25.6741 20.8427 25.6741 20.6667C25.6741 20.4907 25.6392 20.3164 25.5715 20.1539C25.5038 19.9914 25.4046 19.844 25.2797 19.72V19.72Z" fill="#464654"/>
</svg>
