<svg width="22" height="28" viewBox="0 0 22 28" fill="none" xmlns="http://www.w3.org/2000/svg">
<path d="M21.6668 9.91996C21.6529 9.79747 21.6261 9.6768 21.5868 9.55996V9.43996C21.5227 9.30287 21.4372 9.17685 21.3335 9.06663V9.06663L13.3335 1.06663C13.2233 0.962914 13.0973 0.877401 12.9602 0.813293H12.8402L12.4135 0.666626H4.3335C3.27263 0.666626 2.25521 1.08805 1.50507 1.8382C0.754924 2.58834 0.333496 3.60576 0.333496 4.66663V23.3333C0.333496 24.3942 0.754924 25.4116 1.50507 26.1617C2.25521 26.9119 3.27263 27.3333 4.3335 27.3333H17.6668C18.7277 27.3333 19.7451 26.9119 20.4953 26.1617C21.2454 25.4116 21.6668 24.3942 21.6668 23.3333V9.99996C21.6668 9.99996 21.6668 9.99996 21.6668 9.91996ZM13.6668 5.21329L17.1202 8.66663H13.6668V5.21329ZM19.0002 23.3333C19.0002 23.6869 18.8597 24.0261 18.6096 24.2761C18.3596 24.5262 18.0205 24.6666 17.6668 24.6666H4.3335C3.97987 24.6666 3.64074 24.5262 3.39069 24.2761C3.14064 24.0261 3.00016 23.6869 3.00016 23.3333V4.66663C3.00016 4.313 3.14064 3.97387 3.39069 3.72382C3.64074 3.47377 3.97987 3.33329 4.3335 3.33329H11.0002V9.99996C11.0002 10.3536 11.1406 10.6927 11.3907 10.9428C11.6407 11.1928 11.9799 11.3333 12.3335 11.3333H19.0002V23.3333Z" fill="#E4B900"/>
</svg>
