<svg width="28" height="28" viewBox="0 0 28 28" fill="none" xmlns="http://www.w3.org/2000/svg">
<path d="M15.3327 19.3333H7.33269C6.97907 19.3333 6.63993 19.4738 6.38988 19.7239C6.13984 19.9739 5.99936 20.313 5.99936 20.6667C5.99936 21.0203 6.13984 21.3594 6.38988 21.6095C6.63993 21.8595 6.97907 22 7.33269 22H15.3327C15.6863 22 16.0255 21.8595 16.2755 21.6095C16.5255 21.3594 16.666 21.0203 16.666 20.6667C16.666 20.313 16.5255 19.9739 16.2755 19.7239C16.0255 19.4738 15.6863 19.3333 15.3327 19.3333ZM9.99936 11.3333H12.666C13.0196 11.3333 13.3588 11.1929 13.6088 10.9428C13.8589 10.6928 13.9994 10.3536 13.9994 9.99999C13.9994 9.64637 13.8589 9.30723 13.6088 9.05719C13.3588 8.80714 13.0196 8.66666 12.666 8.66666H9.99936C9.64574 8.66666 9.3066 8.80714 9.05655 9.05719C8.8065 9.30723 8.66603 9.64637 8.66603 9.99999C8.66603 10.3536 8.8065 10.6928 9.05655 10.9428C9.3066 11.1929 9.64574 11.3333 9.99936 11.3333V11.3333ZM25.9994 14H21.9994V1.99999C22.0003 1.76505 21.9391 1.53403 21.8221 1.33032C21.705 1.12662 21.5362 0.957467 21.3327 0.839995C21.13 0.72297 20.9001 0.661362 20.666 0.661362C20.432 0.661362 20.2021 0.72297 19.9994 0.839995L15.9994 3.13333L11.9994 0.839995C11.7967 0.72297 11.5667 0.661362 11.3327 0.661362C11.0986 0.661362 10.8687 0.72297 10.666 0.839995L6.66603 3.13333L2.66603 0.839995C2.46333 0.72297 2.23341 0.661362 1.99936 0.661362C1.76531 0.661362 1.53539 0.72297 1.33269 0.839995C1.12922 0.957467 0.960401 1.12662 0.84333 1.33032C0.726259 1.53403 0.665093 1.76505 0.666026 1.99999V23.3333C0.666026 24.3942 1.08745 25.4116 1.8376 26.1618C2.58774 26.9119 3.60516 27.3333 4.66603 27.3333H23.3327C24.3936 27.3333 25.411 26.9119 26.1611 26.1618C26.9113 25.4116 27.3327 24.3942 27.3327 23.3333V15.3333C27.3327 14.9797 27.1922 14.6406 26.9422 14.3905C26.6921 14.1405 26.353 14 25.9994 14ZM4.66603 24.6667C4.3124 24.6667 3.97327 24.5262 3.72322 24.2761C3.47317 24.0261 3.33269 23.687 3.33269 23.3333V4.30666L5.99936 5.82666C6.20514 5.93414 6.43386 5.99028 6.66603 5.99028C6.89819 5.99028 7.12691 5.93414 7.33269 5.82666L11.3327 3.53333L15.3327 5.82666C15.5385 5.93414 15.7672 5.99028 15.9994 5.99028C16.2315 5.99028 16.4602 5.93414 16.666 5.82666L19.3327 4.30666V23.3333C19.3363 23.7882 19.4175 24.2391 19.5727 24.6667H4.66603ZM24.666 23.3333C24.666 23.687 24.5255 24.0261 24.2755 24.2761C24.0255 24.5262 23.6863 24.6667 23.3327 24.6667C22.9791 24.6667 22.6399 24.5262 22.3899 24.2761C22.1398 24.0261 21.9994 23.687 21.9994 23.3333V16.6667H24.666V23.3333ZM15.3327 14H7.33269C6.97907 14 6.63993 14.1405 6.38988 14.3905C6.13984 14.6406 5.99936 14.9797 5.99936 15.3333C5.99936 15.687 6.13984 16.0261 6.38988 16.2761C6.63993 16.5262 6.97907 16.6667 7.33269 16.6667H15.3327C15.6863 16.6667 16.0255 16.5262 16.2755 16.2761C16.5255 16.0261 16.666 15.687 16.666 15.3333C16.666 14.9797 16.5255 14.6406 16.2755 14.3905C16.0255 14.1405 15.6863 14 15.3327 14Z" fill="#464654"/>
</svg>
