<svg width="14" height="12" viewBox="0 0 14 12" fill="none" xmlns="http://www.w3.org/2000/svg">
<path d="M11.6667 0.666666H2.33334C1.80291 0.666666 1.2942 0.87738 0.91913 1.25245C0.544057 1.62753 0.333344 2.13623 0.333344 2.66667V9.33333C0.333344 9.86376 0.544057 10.3725 0.91913 10.7475C1.2942 11.1226 1.80291 11.3333 2.33334 11.3333H11.6667C12.1971 11.3333 12.7058 11.1226 13.0809 10.7475C13.456 10.3725 13.6667 9.86376 13.6667 9.33333V2.66667C13.6667 2.13623 13.456 1.62753 13.0809 1.25245C12.7058 0.87738 12.1971 0.666666 11.6667 0.666666ZM2.33334 2H11.6667C11.8435 2 12.0131 2.07024 12.1381 2.19526C12.2631 2.32029 12.3333 2.48985 12.3333 2.66667L7.00001 5.92L1.66668 2.66667C1.66668 2.48985 1.73691 2.32029 1.86194 2.19526C1.98696 2.07024 2.15653 2 2.33334 2ZM12.3333 9.33333C12.3333 9.51014 12.2631 9.67971 12.1381 9.80474C12.0131 9.92976 11.8435 10 11.6667 10H2.33334C2.15653 10 1.98696 9.92976 1.86194 9.80474C1.73691 9.67971 1.66668 9.51014 1.66668 9.33333V4.18667L6.65334 7.23333C6.75469 7.29184 6.86965 7.32265 6.98668 7.32265C7.1037 7.32265 7.21866 7.29184 7.32001 7.23333L12.3333 4.18667V9.33333Z" fill="#E6E6E6"/>
</svg>
