<svg width="14" height="14" viewBox="0 0 14 14" fill="none" xmlns="http://www.w3.org/2000/svg">
<path d="M5.66668 7.66683H1.00001C0.823199 7.66683 0.65363 7.73707 0.528606 7.86209C0.403581 7.98712 0.333344 8.15669 0.333344 8.3335V13.0002C0.333344 13.177 0.403581 13.3465 0.528606 13.4716C0.65363 13.5966 0.823199 13.6668 1.00001 13.6668H5.66668C5.84349 13.6668 6.01306 13.5966 6.13808 13.4716C6.26311 13.3465 6.33334 13.177 6.33334 13.0002V8.3335C6.33334 8.15669 6.26311 7.98712 6.13808 7.86209C6.01306 7.73707 5.84349 7.66683 5.66668 7.66683ZM5.00001 12.3335H1.66668V9.00016H5.00001V12.3335ZM13 0.333496H8.33334C8.15653 0.333496 7.98696 0.403734 7.86194 0.528758C7.73692 0.653782 7.66668 0.823352 7.66668 1.00016V5.66683C7.66668 5.84364 7.73692 6.01321 7.86194 6.13823C7.98696 6.26326 8.15653 6.3335 8.33334 6.3335H13C13.1768 6.3335 13.3464 6.26326 13.4714 6.13823C13.5964 6.01321 13.6667 5.84364 13.6667 5.66683V1.00016C13.6667 0.823352 13.5964 0.653782 13.4714 0.528758C13.3464 0.403734 13.1768 0.333496 13 0.333496ZM12.3333 5.00016H9.00001V1.66683H12.3333V5.00016ZM13 7.66683H8.33334C8.15653 7.66683 7.98696 7.73707 7.86194 7.86209C7.73692 7.98712 7.66668 8.15669 7.66668 8.3335V13.0002C7.66668 13.177 7.73692 13.3465 7.86194 13.4716C7.98696 13.5966 8.15653 13.6668 8.33334 13.6668H13C13.1768 13.6668 13.3464 13.5966 13.4714 13.4716C13.5964 13.3465 13.6667 13.177 13.6667 13.0002V8.3335C13.6667 8.15669 13.5964 7.98712 13.4714 7.86209C13.3464 7.73707 13.1768 7.66683 13 7.66683ZM12.3333 12.3335H9.00001V9.00016H12.3333V12.3335ZM5.66668 0.333496H1.00001C0.823199 0.333496 0.65363 0.403734 0.528606 0.528758C0.403581 0.653782 0.333344 0.823352 0.333344 1.00016V5.66683C0.333344 5.84364 0.403581 6.01321 0.528606 6.13823C0.65363 6.26326 0.823199 6.3335 1.00001 6.3335H5.66668C5.84349 6.3335 6.01306 6.26326 6.13808 6.13823C6.26311 6.01321 6.33334 5.84364 6.33334 5.66683V1.00016C6.33334 0.823352 6.26311 0.653782 6.13808 0.528758C6.01306 0.403734 5.84349 0.333496 5.66668 0.333496ZM5.00001 5.00016H1.66668V1.66683H5.00001V5.00016Z" fill="#F4CA19"/>
</svg>
