<svg width="14" height="8" viewBox="0 0 14 8" fill="none" xmlns="http://www.w3.org/2000/svg">
<path d="M7.66659 6.66667H0.999919C0.823108 6.66667 0.653538 6.7369 0.528514 6.86193C0.40349 6.98695 0.333252 7.15652 0.333252 7.33333C0.333252 7.51014 0.40349 7.67971 0.528514 7.80474C0.653538 7.92976 0.823108 8 0.999919 8H7.66659C7.8434 8 8.01297 7.92976 8.13799 7.80474C8.26301 7.67971 8.33325 7.51014 8.33325 7.33333C8.33325 7.15652 8.26301 6.98695 8.13799 6.86193C8.01297 6.7369 7.8434 6.66667 7.66659 6.66667ZM0.999919 1.33333H12.9999C13.1767 1.33333 13.3463 1.2631 13.4713 1.13807C13.5963 1.01305 13.6666 0.843478 13.6666 0.666667C13.6666 0.489856 13.5963 0.320287 13.4713 0.195262C13.3463 0.070238 13.1767 0 12.9999 0H0.999919C0.823108 0 0.653538 0.070238 0.528514 0.195262C0.40349 0.320287 0.333252 0.489856 0.333252 0.666667C0.333252 0.843478 0.40349 1.01305 0.528514 1.13807C0.653538 1.2631 0.823108 1.33333 0.999919 1.33333ZM12.9999 3.33333H0.999919C0.823108 3.33333 0.653538 3.40357 0.528514 3.5286C0.40349 3.65362 0.333252 3.82319 0.333252 4C0.333252 4.17681 0.40349 4.34638 0.528514 4.4714C0.653538 4.59643 0.823108 4.66667 0.999919 4.66667H12.9999C13.1767 4.66667 13.3463 4.59643 13.4713 4.4714C13.5963 4.34638 13.6666 4.17681 13.6666 4C13.6666 3.82319 13.5963 3.65362 13.4713 3.5286C13.3463 3.40357 13.1767 3.33333 12.9999 3.33333Z" fill="black"/>
</svg>
