<svg width="14" height="14" viewBox="0 0 14 14" fill="none" xmlns="http://www.w3.org/2000/svg">
<path d="M11.96 7.66667C11.8133 7.66667 11.66 7.62 11.5133 7.58667C11.2163 7.52122 10.9245 7.43432 10.64 7.32667C10.3307 7.21415 9.99077 7.22 9.68555 7.34307C9.38032 7.46615 9.1314 7.69776 8.98667 7.99333L8.84001 8.29333C8.19067 7.93212 7.594 7.48349 7.06667 6.96C6.54319 6.43268 6.09455 5.836 5.73334 5.18667L6.01334 5C6.30892 4.85528 6.54053 4.60635 6.6636 4.30113C6.78668 3.9959 6.79252 3.65594 6.68001 3.34667C6.57415 3.06162 6.4873 2.76987 6.42001 2.47333C6.38667 2.32667 6.36001 2.17333 6.34001 2.02C6.25905 1.55041 6.01309 1.12516 5.64642 0.820827C5.27975 0.516492 4.81647 0.353073 4.34001 0.36H2.34001C2.05269 0.357303 1.76817 0.416543 1.50581 0.533687C1.24345 0.650832 1.00941 0.823131 0.819626 1.03886C0.62984 1.25458 0.488763 1.50866 0.405998 1.78381C0.323234 2.05896 0.300726 2.34871 0.340006 2.63333C0.695165 5.42625 1.97069 8.02125 3.96511 10.0084C5.95952 11.9956 8.55915 13.2617 11.3533 13.6067H11.6067C12.0983 13.6074 12.5729 13.427 12.94 13.1C13.1509 12.9114 13.3194 12.6801 13.4343 12.4215C13.5492 12.163 13.608 11.883 13.6067 11.6V9.6C13.5985 9.13692 13.4299 8.69104 13.1296 8.33844C12.8293 7.98585 12.4159 7.74842 11.96 7.66667ZM12.2933 11.6667C12.2932 11.7613 12.2729 11.8549 12.2339 11.9411C12.1948 12.0273 12.1378 12.1042 12.0667 12.1667C11.9924 12.2313 11.9053 12.2796 11.8111 12.3083C11.7169 12.3371 11.6177 12.3456 11.52 12.3333C9.02327 12.0132 6.70416 10.871 4.92848 9.08686C3.1528 7.30273 2.02161 4.97823 1.71334 2.48C1.70273 2.38235 1.71203 2.28355 1.74067 2.18959C1.76932 2.09563 1.81672 2.00846 1.88001 1.93333C1.94248 1.86222 2.01938 1.80523 2.10559 1.76615C2.1918 1.72706 2.28535 1.70679 2.38001 1.70667H4.38001C4.53504 1.70322 4.68642 1.75392 4.8081 1.85005C4.92978 1.94618 5.01415 2.08171 5.04667 2.23333C5.07334 2.41556 5.10667 2.59556 5.14667 2.77333C5.22369 3.12476 5.32618 3.47012 5.45334 3.80667L4.52001 4.24C4.4402 4.27661 4.36842 4.32863 4.30878 4.39306C4.24913 4.4575 4.20281 4.53308 4.17245 4.61546C4.1421 4.69785 4.12832 4.78542 4.1319 4.87315C4.13549 4.96088 4.15637 5.04703 4.19334 5.12667C5.15281 7.18184 6.80484 8.83387 8.86001 9.79333C9.02231 9.86001 9.20437 9.86001 9.36667 9.79333C9.44981 9.7636 9.52622 9.71764 9.59145 9.65812C9.65669 9.59861 9.70945 9.52674 9.74667 9.44667L10.16 8.51333C10.5047 8.63659 10.8564 8.73899 11.2133 8.82C11.3911 8.86 11.5711 8.89333 11.7533 8.92C11.905 8.95253 12.0405 9.03689 12.1366 9.15857C12.2328 9.28025 12.2835 9.43164 12.28 9.58667L12.2933 11.6667Z" fill="#E6E6E6"/>
</svg>
