<svg width="14" height="14" viewBox="0 0 14 14" fill="none" xmlns="http://www.w3.org/2000/svg">
<path d="M13.4734 12.5267L11.0001 10.0733C11.9601 8.87627 12.4251 7.35686 12.2993 5.82753C12.1735 4.2982 11.4665 2.87519 10.3237 1.85109C9.18097 0.827001 7.68926 0.279671 6.15534 0.321644C4.62142 0.363618 3.16187 0.991705 2.07682 2.07676C0.991766 3.16181 0.363679 4.62136 0.321705 6.15528C0.279732 7.6892 0.827062 9.18091 1.85115 10.3237C2.87525 11.4664 4.29826 12.1734 5.82759 12.2992C7.35692 12.425 8.87633 11.9601 10.0734 11L12.5267 13.4533C12.5887 13.5158 12.6624 13.5654 12.7437 13.5993C12.8249 13.6331 12.9121 13.6505 13.0001 13.6505C13.0881 13.6505 13.1752 13.6331 13.2564 13.5993C13.3377 13.5654 13.4114 13.5158 13.4734 13.4533C13.5936 13.329 13.6607 13.1629 13.6607 12.99C13.6607 12.8171 13.5936 12.651 13.4734 12.5267ZM6.33339 11C5.41041 11 4.50816 10.7263 3.74073 10.2135C2.9733 9.70074 2.37516 8.97191 2.02195 8.11919C1.66874 7.26646 1.57633 6.32815 1.75639 5.42291C1.93646 4.51766 2.38091 3.68614 3.03356 3.0335C3.6862 2.38085 4.51773 1.9364 5.42297 1.75633C6.32821 1.57627 7.26653 1.66868 8.11925 2.02189C8.97197 2.3751 9.7008 2.97324 10.2136 3.74067C10.7264 4.5081 11.0001 5.41035 11.0001 6.33333C11.0001 7.57101 10.5084 8.75799 9.63322 9.63316C8.75805 10.5083 7.57107 11 6.33339 11Z" fill="black"/>
</svg>
