<svg width="12" height="14" viewBox="0 0 12 14" fill="none" xmlns="http://www.w3.org/2000/svg">
<path d="M11.26 5.36665C11.2046 5.25671 11.1199 5.16426 11.0151 5.09954C10.9104 5.03482 10.7898 5.00036 10.6667 4.99999H7.33336V0.999988C7.34052 0.853777 7.29935 0.709276 7.21621 0.588788C7.13308 0.468301 7.0126 0.378526 6.87336 0.333321C6.73951 0.289283 6.59515 0.288789 6.461 0.331908C6.32686 0.375027 6.20982 0.459542 6.1267 0.573321L0.793363 7.90665C0.72654 8.00323 0.686416 8.11575 0.67705 8.23282C0.667685 8.34988 0.689411 8.46735 0.74003 8.57332C0.786644 8.69449 0.867622 8.79941 0.973023 8.8752C1.07842 8.95099 1.20366 8.99437 1.33336 8.99999H4.6667V13C4.6668 13.1406 4.71134 13.2775 4.79396 13.3913C4.87658 13.505 4.99304 13.5897 5.1267 13.6333C5.19368 13.6541 5.26325 13.6653 5.33336 13.6667C5.43855 13.6669 5.54232 13.6423 5.63617 13.5948C5.73002 13.5473 5.8113 13.4783 5.87336 13.3933L11.2067 6.05999C11.2785 5.96052 11.3215 5.84316 11.3309 5.72083C11.3403 5.59849 11.3158 5.47594 11.26 5.36665V5.36665ZM6.00003 10.9467V8.33332C6.00003 8.15651 5.92979 7.98694 5.80477 7.86192C5.67974 7.73689 5.51017 7.66665 5.33336 7.66665H2.6667L6.00003 3.05332V5.66665C6.00003 5.84347 6.07027 6.01303 6.19529 6.13806C6.32032 6.26308 6.48989 6.33332 6.6667 6.33332H9.33336L6.00003 10.9467Z" fill="#E4B900"/>
</svg>
